<mxfile host="app.diagrams.net" agent="Mozilla/5.0 (Windows NT 10.0; Win64; x64) AppleWebKit/537.36 (KHTML, like Gecko) Chrome/131.0.0.0 Safari/537.36" version="24.9.0">
  <diagram name="Page-1" id="fxe1l8V1LLbaFervXqa2">
    <mxGraphModel dx="2280" dy="790" grid="1" gridSize="10" guides="1" tooltips="1" connect="1" arrows="1" fold="1" page="1" pageScale="1" pageWidth="850" pageHeight="1100" math="0" shadow="0">
      <root>
        <mxCell id="0" />
        <mxCell id="1" parent="0" />
        <mxCell id="aFa8zUOiE3MjUb50T6CR-73" value="&lt;u&gt;Customer_ID&lt;/u&gt;" style="rounded=0;whiteSpace=wrap;html=1;labelBackgroundColor=none;" vertex="1" parent="1">
          <mxGeometry x="40" y="40" width="80" height="40" as="geometry" />
        </mxCell>
        <mxCell id="aFa8zUOiE3MjUb50T6CR-74" value="F_Name" style="rounded=0;whiteSpace=wrap;html=1;labelBackgroundColor=none;" vertex="1" parent="1">
          <mxGeometry x="120" y="40" width="70" height="40" as="geometry" />
        </mxCell>
        <mxCell id="aFa8zUOiE3MjUb50T6CR-75" value="L_Name" style="rounded=0;whiteSpace=wrap;html=1;labelBackgroundColor=none;" vertex="1" parent="1">
          <mxGeometry x="190" y="40" width="70" height="40" as="geometry" />
        </mxCell>
        <mxCell id="aFa8zUOiE3MjUb50T6CR-76" value="Phone" style="rounded=0;whiteSpace=wrap;html=1;labelBackgroundColor=none;" vertex="1" parent="1">
          <mxGeometry x="320" y="40" width="70" height="40" as="geometry" />
        </mxCell>
        <mxCell id="aFa8zUOiE3MjUb50T6CR-77" value="Email" style="rounded=0;whiteSpace=wrap;html=1;labelBackgroundColor=none;" vertex="1" parent="1">
          <mxGeometry x="390" y="40" width="70" height="40" as="geometry" />
        </mxCell>
        <mxCell id="aFa8zUOiE3MjUb50T6CR-78" value="Address" style="rounded=0;whiteSpace=wrap;html=1;labelBackgroundColor=none;" vertex="1" parent="1">
          <mxGeometry x="460" y="40" width="70" height="40" as="geometry" />
        </mxCell>
        <mxCell id="aFa8zUOiE3MjUb50T6CR-79" value="M_Init" style="rounded=0;whiteSpace=wrap;html=1;labelBackgroundColor=none;" vertex="1" parent="1">
          <mxGeometry x="260" y="40" width="60" height="40" as="geometry" />
        </mxCell>
        <mxCell id="aFa8zUOiE3MjUb50T6CR-80" value="&lt;b&gt;Customer&lt;/b&gt;" style="text;html=1;align=center;verticalAlign=middle;whiteSpace=wrap;rounded=0;" vertex="1" parent="1">
          <mxGeometry x="40" y="10" width="60" height="30" as="geometry" />
        </mxCell>
        <mxCell id="aFa8zUOiE3MjUb50T6CR-81" value="&lt;u&gt;Appointment_ID&lt;/u&gt;" style="rounded=0;whiteSpace=wrap;html=1;labelBackgroundColor=none;" vertex="1" parent="1">
          <mxGeometry x="40" y="120" width="100" height="40" as="geometry" />
        </mxCell>
        <mxCell id="aFa8zUOiE3MjUb50T6CR-82" value="&lt;b&gt;Appointment&lt;/b&gt;" style="text;html=1;align=center;verticalAlign=middle;whiteSpace=wrap;rounded=0;" vertex="1" parent="1">
          <mxGeometry x="40" y="90" width="80" height="30" as="geometry" />
        </mxCell>
        <mxCell id="aFa8zUOiE3MjUb50T6CR-83" value="Drop_Off" style="rounded=0;whiteSpace=wrap;html=1;labelBackgroundColor=none;" vertex="1" parent="1">
          <mxGeometry x="140" y="120" width="70" height="40" as="geometry" />
        </mxCell>
        <mxCell id="aFa8zUOiE3MjUb50T6CR-84" value="Pick_Up" style="rounded=0;whiteSpace=wrap;html=1;labelBackgroundColor=none;" vertex="1" parent="1">
          <mxGeometry x="210" y="120" width="60" height="40" as="geometry" />
        </mxCell>
        <mxCell id="aFa8zUOiE3MjUb50T6CR-85" value="Appointment_Made_Date" style="rounded=0;whiteSpace=wrap;html=1;labelBackgroundColor=none;" vertex="1" parent="1">
          <mxGeometry x="270" y="120" width="150" height="40" as="geometry" />
        </mxCell>
        <mxCell id="aFa8zUOiE3MjUb50T6CR-86" value="&lt;b&gt;Package&lt;/b&gt;" style="text;html=1;align=center;verticalAlign=middle;whiteSpace=wrap;rounded=0;" vertex="1" parent="1">
          <mxGeometry x="40" y="170" width="60" height="30" as="geometry" />
        </mxCell>
        <mxCell id="aFa8zUOiE3MjUb50T6CR-87" value="&lt;u&gt;Package_ID&lt;/u&gt;" style="rounded=0;whiteSpace=wrap;html=1;labelBackgroundColor=none;" vertex="1" parent="1">
          <mxGeometry x="40" y="200" width="90" height="40" as="geometry" />
        </mxCell>
        <mxCell id="aFa8zUOiE3MjUb50T6CR-88" value="Name" style="rounded=0;whiteSpace=wrap;html=1;labelBackgroundColor=none;" vertex="1" parent="1">
          <mxGeometry x="130" y="200" width="60" height="40" as="geometry" />
        </mxCell>
        <mxCell id="aFa8zUOiE3MjUb50T6CR-89" value="Time_Since_Purchase" style="rounded=0;whiteSpace=wrap;html=1;labelBackgroundColor=none;" vertex="1" parent="1">
          <mxGeometry x="190" y="200" width="130" height="40" as="geometry" />
        </mxCell>
        <mxCell id="aFa8zUOiE3MjUb50T6CR-90" style="edgeStyle=orthogonalEdgeStyle;rounded=0;orthogonalLoop=1;jettySize=auto;html=1;entryX=0;entryY=0.5;entryDx=0;entryDy=0;" edge="1" parent="1" source="aFa8zUOiE3MjUb50T6CR-92" target="aFa8zUOiE3MjUb50T6CR-124">
          <mxGeometry relative="1" as="geometry">
            <Array as="points">
              <mxPoint y="265" />
              <mxPoint y="825" />
            </Array>
          </mxGeometry>
        </mxCell>
        <mxCell id="aFa8zUOiE3MjUb50T6CR-91" style="edgeStyle=orthogonalEdgeStyle;rounded=0;orthogonalLoop=1;jettySize=auto;html=1;entryX=0;entryY=0.5;entryDx=0;entryDy=0;" edge="1" parent="1" source="aFa8zUOiE3MjUb50T6CR-92" target="aFa8zUOiE3MjUb50T6CR-125">
          <mxGeometry relative="1" as="geometry">
            <Array as="points">
              <mxPoint x="-10" y="265" />
              <mxPoint x="-10" y="905" />
            </Array>
          </mxGeometry>
        </mxCell>
        <mxCell id="aFa8zUOiE3MjUb50T6CR-92" value="&lt;b&gt;Task&lt;/b&gt;" style="text;html=1;align=center;verticalAlign=middle;whiteSpace=wrap;rounded=0;" vertex="1" parent="1">
          <mxGeometry x="40" y="250" width="60" height="30" as="geometry" />
        </mxCell>
        <mxCell id="aFa8zUOiE3MjUb50T6CR-93" value="&lt;u&gt;Task_ID&lt;/u&gt;" style="rounded=0;whiteSpace=wrap;html=1;labelBackgroundColor=none;" vertex="1" parent="1">
          <mxGeometry x="40" y="280" width="60" height="40" as="geometry" />
        </mxCell>
        <mxCell id="aFa8zUOiE3MjUb50T6CR-94" value="Name" style="rounded=0;whiteSpace=wrap;html=1;labelBackgroundColor=none;" vertex="1" parent="1">
          <mxGeometry x="100" y="280" width="50" height="40" as="geometry" />
        </mxCell>
        <mxCell id="aFa8zUOiE3MjUb50T6CR-95" value="Estd_Time" style="rounded=0;whiteSpace=wrap;html=1;labelBackgroundColor=none;" vertex="1" parent="1">
          <mxGeometry x="150" y="280" width="70" height="40" as="geometry" />
        </mxCell>
        <mxCell id="aFa8zUOiE3MjUb50T6CR-96" value="Estd_Labor_Cost" style="rounded=0;whiteSpace=wrap;html=1;labelBackgroundColor=none;" vertex="1" parent="1">
          <mxGeometry x="220" y="280" width="110" height="40" as="geometry" />
        </mxCell>
        <mxCell id="aFa8zUOiE3MjUb50T6CR-97" value="&lt;b&gt;Part&lt;/b&gt;" style="text;html=1;align=center;verticalAlign=middle;whiteSpace=wrap;rounded=0;" vertex="1" parent="1">
          <mxGeometry x="40" y="330" width="60" height="30" as="geometry" />
        </mxCell>
        <mxCell id="aFa8zUOiE3MjUb50T6CR-98" value="&lt;u&gt;Part_ID&lt;/u&gt;" style="rounded=0;whiteSpace=wrap;html=1;labelBackgroundColor=none;" vertex="1" parent="1">
          <mxGeometry x="40" y="360" width="60" height="40" as="geometry" />
        </mxCell>
        <mxCell id="aFa8zUOiE3MjUb50T6CR-99" value="Cost_Of_Part" style="rounded=0;whiteSpace=wrap;html=1;labelBackgroundColor=none;" vertex="1" parent="1">
          <mxGeometry x="100" y="360" width="90" height="40" as="geometry" />
        </mxCell>
        <mxCell id="aFa8zUOiE3MjUb50T6CR-100" value="Name" style="rounded=0;whiteSpace=wrap;html=1;labelBackgroundColor=none;" vertex="1" parent="1">
          <mxGeometry x="190" y="360" width="50" height="40" as="geometry" />
        </mxCell>
        <mxCell id="aFa8zUOiE3MjUb50T6CR-101" value="&lt;b&gt;Vehicle_Type&lt;/b&gt;" style="text;html=1;align=center;verticalAlign=middle;whiteSpace=wrap;rounded=0;" vertex="1" parent="1">
          <mxGeometry x="40" y="410" width="80" height="30" as="geometry" />
        </mxCell>
        <mxCell id="aFa8zUOiE3MjUb50T6CR-102" value="&lt;u&gt;Vehicle_ID&lt;/u&gt;" style="rounded=0;whiteSpace=wrap;html=1;labelBackgroundColor=none;" vertex="1" parent="1">
          <mxGeometry x="40" y="440" width="70" height="40" as="geometry" />
        </mxCell>
        <mxCell id="aFa8zUOiE3MjUb50T6CR-103" value="Make" style="rounded=0;whiteSpace=wrap;html=1;labelBackgroundColor=none;" vertex="1" parent="1">
          <mxGeometry x="110" y="440" width="60" height="40" as="geometry" />
        </mxCell>
        <mxCell id="aFa8zUOiE3MjUb50T6CR-104" value="Model" style="rounded=0;whiteSpace=wrap;html=1;labelBackgroundColor=none;" vertex="1" parent="1">
          <mxGeometry x="170" y="440" width="60" height="40" as="geometry" />
        </mxCell>
        <mxCell id="aFa8zUOiE3MjUb50T6CR-105" value="Year" style="rounded=0;whiteSpace=wrap;html=1;labelBackgroundColor=none;" vertex="1" parent="1">
          <mxGeometry x="230" y="440" width="60" height="40" as="geometry" />
        </mxCell>
        <mxCell id="aFa8zUOiE3MjUb50T6CR-106" value="Tire_Type" style="rounded=0;whiteSpace=wrap;html=1;labelBackgroundColor=none;" vertex="1" parent="1">
          <mxGeometry x="290" y="440" width="70" height="40" as="geometry" />
        </mxCell>
        <mxCell id="aFa8zUOiE3MjUb50T6CR-107" value="Engine_Type" style="rounded=0;whiteSpace=wrap;html=1;labelBackgroundColor=none;" vertex="1" parent="1">
          <mxGeometry x="360" y="440" width="80" height="40" as="geometry" />
        </mxCell>
        <mxCell id="aFa8zUOiE3MjUb50T6CR-108" style="edgeStyle=orthogonalEdgeStyle;rounded=0;orthogonalLoop=1;jettySize=auto;html=1;entryX=0;entryY=0.5;entryDx=0;entryDy=0;" edge="1" parent="1" source="aFa8zUOiE3MjUb50T6CR-110" target="aFa8zUOiE3MjUb50T6CR-120">
          <mxGeometry relative="1" as="geometry">
            <Array as="points">
              <mxPoint x="20" y="505" />
              <mxPoint x="20" y="665" />
            </Array>
          </mxGeometry>
        </mxCell>
        <mxCell id="aFa8zUOiE3MjUb50T6CR-109" style="edgeStyle=orthogonalEdgeStyle;rounded=0;orthogonalLoop=1;jettySize=auto;html=1;entryX=0;entryY=0.5;entryDx=0;entryDy=0;" edge="1" parent="1" source="aFa8zUOiE3MjUb50T6CR-110" target="aFa8zUOiE3MjUb50T6CR-121">
          <mxGeometry relative="1" as="geometry">
            <Array as="points">
              <mxPoint x="10" y="505" />
              <mxPoint x="10" y="745" />
            </Array>
          </mxGeometry>
        </mxCell>
        <mxCell id="aFa8zUOiE3MjUb50T6CR-110" value="&lt;b&gt;Car&lt;/b&gt;" style="text;html=1;align=center;verticalAlign=middle;whiteSpace=wrap;rounded=0;" vertex="1" parent="1">
          <mxGeometry x="40" y="490" width="40" height="30" as="geometry" />
        </mxCell>
        <mxCell id="aFa8zUOiE3MjUb50T6CR-111" value="&lt;u&gt;Car_ID&lt;/u&gt;" style="rounded=0;whiteSpace=wrap;html=1;labelBackgroundColor=none;" vertex="1" parent="1">
          <mxGeometry x="40" y="520" width="70" height="40" as="geometry" />
        </mxCell>
        <mxCell id="aFa8zUOiE3MjUb50T6CR-112" value="Interior" style="rounded=0;whiteSpace=wrap;html=1;labelBackgroundColor=none;" vertex="1" parent="1">
          <mxGeometry x="110" y="520" width="70" height="40" as="geometry" />
        </mxCell>
        <mxCell id="aFa8zUOiE3MjUb50T6CR-113" value="Odometer" style="rounded=0;whiteSpace=wrap;html=1;labelBackgroundColor=none;" vertex="1" parent="1">
          <mxGeometry x="180" y="520" width="70" height="40" as="geometry" />
        </mxCell>
        <mxCell id="aFa8zUOiE3MjUb50T6CR-114" value="Color" style="rounded=0;whiteSpace=wrap;html=1;labelBackgroundColor=none;" vertex="1" parent="1">
          <mxGeometry x="250" y="520" width="50" height="40" as="geometry" />
        </mxCell>
        <mxCell id="aFa8zUOiE3MjUb50T6CR-115" value="&lt;b&gt;Time_Slot&lt;/b&gt;" style="text;html=1;align=center;verticalAlign=middle;whiteSpace=wrap;rounded=0;" vertex="1" parent="1">
          <mxGeometry x="40" y="570" width="60" height="30" as="geometry" />
        </mxCell>
        <mxCell id="aFa8zUOiE3MjUb50T6CR-116" value="&lt;u&gt;Time_Slot_ID&lt;/u&gt;" style="rounded=0;whiteSpace=wrap;html=1;labelBackgroundColor=none;" vertex="1" parent="1">
          <mxGeometry x="40" y="600" width="80" height="40" as="geometry" />
        </mxCell>
        <mxCell id="aFa8zUOiE3MjUb50T6CR-117" value="Date" style="rounded=0;whiteSpace=wrap;html=1;labelBackgroundColor=none;" vertex="1" parent="1">
          <mxGeometry x="120" y="600" width="60" height="40" as="geometry" />
        </mxCell>
        <mxCell id="aFa8zUOiE3MjUb50T6CR-118" value="Start_Time" style="rounded=0;whiteSpace=wrap;html=1;labelBackgroundColor=none;" vertex="1" parent="1">
          <mxGeometry x="180" y="600" width="70" height="40" as="geometry" />
        </mxCell>
        <mxCell id="aFa8zUOiE3MjUb50T6CR-119" value="End_Time" style="rounded=0;whiteSpace=wrap;html=1;labelBackgroundColor=none;" vertex="1" parent="1">
          <mxGeometry x="250" y="600" width="70" height="40" as="geometry" />
        </mxCell>
        <mxCell id="aFa8zUOiE3MjUb50T6CR-120" value="&lt;b&gt;Customer_Cars&lt;/b&gt;" style="text;html=1;align=center;verticalAlign=middle;whiteSpace=wrap;rounded=0;" vertex="1" parent="1">
          <mxGeometry x="40" y="650" width="100" height="30" as="geometry" />
        </mxCell>
        <mxCell id="aFa8zUOiE3MjUb50T6CR-121" value="&lt;b&gt;Cars_In_Inventory&lt;/b&gt;" style="text;html=1;align=center;verticalAlign=middle;whiteSpace=wrap;rounded=0;" vertex="1" parent="1">
          <mxGeometry x="40" y="730" width="110" height="30" as="geometry" />
        </mxCell>
        <mxCell id="aFa8zUOiE3MjUb50T6CR-122" value="License_Plate_State" style="rounded=0;whiteSpace=wrap;html=1;labelBackgroundColor=none;" vertex="1" parent="1">
          <mxGeometry x="110" y="680" width="130" height="40" as="geometry" />
        </mxCell>
        <mxCell id="aFa8zUOiE3MjUb50T6CR-123" value="License_Plate" style="rounded=0;whiteSpace=wrap;html=1;labelBackgroundColor=none;" vertex="1" parent="1">
          <mxGeometry x="240" y="680" width="100" height="40" as="geometry" />
        </mxCell>
        <mxCell id="aFa8zUOiE3MjUb50T6CR-124" value="&lt;b&gt;Test&lt;/b&gt;" style="text;html=1;align=center;verticalAlign=middle;whiteSpace=wrap;rounded=0;" vertex="1" parent="1">
          <mxGeometry x="40" y="810" width="40" height="30" as="geometry" />
        </mxCell>
        <mxCell id="aFa8zUOiE3MjUb50T6CR-125" value="&lt;b&gt;Part_Replacement&lt;/b&gt;" style="text;html=1;align=center;verticalAlign=middle;whiteSpace=wrap;rounded=0;" vertex="1" parent="1">
          <mxGeometry x="40" y="890" width="120" height="30" as="geometry" />
        </mxCell>
        <mxCell id="aFa8zUOiE3MjUb50T6CR-126" value="&lt;b&gt;Purchase&lt;/b&gt;" style="text;html=1;align=center;verticalAlign=middle;whiteSpace=wrap;rounded=0;" vertex="1" parent="1">
          <mxGeometry x="40" y="970" width="70" height="30" as="geometry" />
        </mxCell>
        <mxCell id="aFa8zUOiE3MjUb50T6CR-178" style="edgeStyle=orthogonalEdgeStyle;rounded=0;orthogonalLoop=1;jettySize=auto;html=1;entryX=0;entryY=0.5;entryDx=0;entryDy=0;" edge="1" parent="1" source="aFa8zUOiE3MjUb50T6CR-127" target="aFa8zUOiE3MjUb50T6CR-175">
          <mxGeometry relative="1" as="geometry">
            <Array as="points">
              <mxPoint x="30" y="1020" />
              <mxPoint x="30" y="1100" />
            </Array>
          </mxGeometry>
        </mxCell>
        <mxCell id="aFa8zUOiE3MjUb50T6CR-127" value="&lt;u&gt;Purchase_ID&lt;/u&gt;" style="rounded=0;whiteSpace=wrap;html=1;labelBackgroundColor=none;" vertex="1" parent="1">
          <mxGeometry x="40" y="1000" width="80" height="40" as="geometry" />
        </mxCell>
        <mxCell id="aFa8zUOiE3MjUb50T6CR-128" value="Date_Of_Purchase" style="rounded=0;whiteSpace=wrap;html=1;labelBackgroundColor=none;" vertex="1" parent="1">
          <mxGeometry x="120" y="1000" width="120" height="40" as="geometry" />
        </mxCell>
        <mxCell id="aFa8zUOiE3MjUb50T6CR-129" style="edgeStyle=orthogonalEdgeStyle;rounded=0;orthogonalLoop=1;jettySize=auto;html=1;entryX=0.5;entryY=1;entryDx=0;entryDy=0;" edge="1" parent="1" source="aFa8zUOiE3MjUb50T6CR-130" target="aFa8zUOiE3MjUb50T6CR-73">
          <mxGeometry relative="1" as="geometry">
            <Array as="points">
              <mxPoint x="470" y="90" />
              <mxPoint x="80" y="90" />
            </Array>
          </mxGeometry>
        </mxCell>
        <mxCell id="aFa8zUOiE3MjUb50T6CR-130" value="Customer_ID" style="rounded=0;whiteSpace=wrap;html=1;labelBackgroundColor=none;" vertex="1" parent="1">
          <mxGeometry x="420" y="120" width="100" height="40" as="geometry" />
        </mxCell>
        <mxCell id="aFa8zUOiE3MjUb50T6CR-131" style="edgeStyle=orthogonalEdgeStyle;rounded=0;orthogonalLoop=1;jettySize=auto;html=1;entryX=0.5;entryY=1;entryDx=0;entryDy=0;" edge="1" parent="1" source="aFa8zUOiE3MjUb50T6CR-132" target="aFa8zUOiE3MjUb50T6CR-111">
          <mxGeometry relative="1" as="geometry">
            <Array as="points">
              <mxPoint x="470" y="1020" />
              <mxPoint x="470" y="570" />
              <mxPoint x="75" y="570" />
            </Array>
          </mxGeometry>
        </mxCell>
        <mxCell id="aFa8zUOiE3MjUb50T6CR-132" value="&lt;u&gt;Car_ID&lt;/u&gt;" style="rounded=0;whiteSpace=wrap;html=1;labelBackgroundColor=none;" vertex="1" parent="1">
          <mxGeometry x="240" y="1000" width="110" height="40" as="geometry" />
        </mxCell>
        <mxCell id="aFa8zUOiE3MjUb50T6CR-133" value="Customer_Cars_ID" style="rounded=0;whiteSpace=wrap;html=1;labelBackgroundColor=none;" vertex="1" parent="1">
          <mxGeometry x="340" y="680" width="110" height="40" as="geometry" />
        </mxCell>
        <mxCell id="aFa8zUOiE3MjUb50T6CR-134" style="edgeStyle=orthogonalEdgeStyle;rounded=0;orthogonalLoop=1;jettySize=auto;html=1;entryX=1;entryY=0.5;entryDx=0;entryDy=0;" edge="1" parent="1" source="aFa8zUOiE3MjUb50T6CR-135" target="aFa8zUOiE3MjUb50T6CR-133">
          <mxGeometry relative="1" as="geometry">
            <Array as="points">
              <mxPoint x="580" y="700" />
            </Array>
          </mxGeometry>
        </mxCell>
        <mxCell id="aFa8zUOiE3MjUb50T6CR-135" value="Customer_Cars_ID" style="rounded=0;whiteSpace=wrap;html=1;labelBackgroundColor=none;" vertex="1" parent="1">
          <mxGeometry x="520" y="120" width="120" height="40" as="geometry" />
        </mxCell>
        <mxCell id="aFa8zUOiE3MjUb50T6CR-136" style="edgeStyle=orthogonalEdgeStyle;rounded=0;orthogonalLoop=1;jettySize=auto;html=1;entryX=0.5;entryY=1;entryDx=0;entryDy=0;exitX=0.25;exitY=1;exitDx=0;exitDy=0;" edge="1" parent="1" source="aFa8zUOiE3MjUb50T6CR-137" target="aFa8zUOiE3MjUb50T6CR-87">
          <mxGeometry relative="1" as="geometry">
            <Array as="points">
              <mxPoint x="670" y="250" />
              <mxPoint x="85" y="250" />
            </Array>
          </mxGeometry>
        </mxCell>
        <mxCell id="aFa8zUOiE3MjUb50T6CR-137" value="Package_ID" style="rounded=0;whiteSpace=wrap;html=1;labelBackgroundColor=none;" vertex="1" parent="1">
          <mxGeometry x="640" y="120" width="120" height="40" as="geometry" />
        </mxCell>
        <mxCell id="aFa8zUOiE3MjUb50T6CR-138" style="edgeStyle=orthogonalEdgeStyle;rounded=0;orthogonalLoop=1;jettySize=auto;html=1;entryX=1;entryY=0.5;entryDx=0;entryDy=0;" edge="1" parent="1" source="aFa8zUOiE3MjUb50T6CR-139" target="aFa8zUOiE3MjUb50T6CR-125">
          <mxGeometry relative="1" as="geometry">
            <mxPoint x="170" y="940" as="targetPoint" />
            <Array as="points">
              <mxPoint x="460" y="380" />
              <mxPoint x="460" y="905" />
            </Array>
          </mxGeometry>
        </mxCell>
        <mxCell id="aFa8zUOiE3MjUb50T6CR-139" value="Part_Replacement" style="rounded=0;whiteSpace=wrap;html=1;labelBackgroundColor=none;" vertex="1" parent="1">
          <mxGeometry x="240" y="360" width="110" height="40" as="geometry" />
        </mxCell>
        <mxCell id="aFa8zUOiE3MjUb50T6CR-140" style="edgeStyle=orthogonalEdgeStyle;rounded=0;orthogonalLoop=1;jettySize=auto;html=1;entryX=0.5;entryY=1;entryDx=0;entryDy=0;" edge="1" parent="1" source="aFa8zUOiE3MjUb50T6CR-141" target="aFa8zUOiE3MjUb50T6CR-102">
          <mxGeometry relative="1" as="geometry">
            <Array as="points">
              <mxPoint x="335" y="490" />
              <mxPoint x="75" y="490" />
            </Array>
          </mxGeometry>
        </mxCell>
        <mxCell id="aFa8zUOiE3MjUb50T6CR-141" value="Vehicle_ID" style="rounded=0;whiteSpace=wrap;html=1;labelBackgroundColor=none;" vertex="1" parent="1">
          <mxGeometry x="300" y="520" width="70" height="40" as="geometry" />
        </mxCell>
        <mxCell id="aFa8zUOiE3MjUb50T6CR-142" value="Time_Slot_ID" style="rounded=0;whiteSpace=wrap;html=1;labelBackgroundColor=none;" vertex="1" parent="1">
          <mxGeometry x="760" y="120" width="120" height="40" as="geometry" />
        </mxCell>
        <mxCell id="aFa8zUOiE3MjUb50T6CR-143" style="edgeStyle=orthogonalEdgeStyle;rounded=0;orthogonalLoop=1;jettySize=auto;html=1;entryX=0.554;entryY=0.983;entryDx=0;entryDy=0;entryPerimeter=0;" edge="1" parent="1" source="aFa8zUOiE3MjUb50T6CR-142" target="aFa8zUOiE3MjUb50T6CR-116">
          <mxGeometry relative="1" as="geometry">
            <Array as="points">
              <mxPoint x="820" y="650" />
              <mxPoint x="84" y="650" />
            </Array>
          </mxGeometry>
        </mxCell>
        <mxCell id="aFa8zUOiE3MjUb50T6CR-144" value="&lt;u&gt;Car_ID&lt;/u&gt;" style="rounded=0;whiteSpace=wrap;html=1;labelBackgroundColor=none;" vertex="1" parent="1">
          <mxGeometry x="40" y="760" width="70" height="40" as="geometry" />
        </mxCell>
        <mxCell id="aFa8zUOiE3MjUb50T6CR-145" value="&lt;u&gt;Car_ID&lt;/u&gt;" style="rounded=0;whiteSpace=wrap;html=1;labelBackgroundColor=none;" vertex="1" parent="1">
          <mxGeometry x="40" y="680" width="70" height="40" as="geometry" />
        </mxCell>
        <mxCell id="aFa8zUOiE3MjUb50T6CR-146" value="Task_ID" style="rounded=0;whiteSpace=wrap;html=1;labelBackgroundColor=none;fontStyle=4" vertex="1" parent="1">
          <mxGeometry x="40" y="840" width="60" height="40" as="geometry" />
        </mxCell>
        <mxCell id="aFa8zUOiE3MjUb50T6CR-147" value="&lt;u&gt;Task_ID&lt;/u&gt;" style="rounded=0;whiteSpace=wrap;html=1;labelBackgroundColor=none;" vertex="1" parent="1">
          <mxGeometry x="40" y="920" width="60" height="40" as="geometry" />
        </mxCell>
        <mxCell id="aFa8zUOiE3MjUb50T6CR-148" value="&lt;b&gt;Used In&lt;/b&gt;" style="text;html=1;align=center;verticalAlign=middle;whiteSpace=wrap;rounded=0;" vertex="1" parent="1">
          <mxGeometry x="40" y="1130" width="70" height="30" as="geometry" />
        </mxCell>
        <mxCell id="aFa8zUOiE3MjUb50T6CR-149" value="&lt;u&gt;Vehicle_ID&lt;/u&gt;" style="rounded=0;whiteSpace=wrap;html=1;labelBackgroundColor=none;" vertex="1" parent="1">
          <mxGeometry x="40" y="1160" width="80" height="40" as="geometry" />
        </mxCell>
        <mxCell id="aFa8zUOiE3MjUb50T6CR-185" style="edgeStyle=orthogonalEdgeStyle;rounded=0;orthogonalLoop=1;jettySize=auto;html=1;entryX=0;entryY=0.5;entryDx=0;entryDy=0;" edge="1" parent="1" source="aFa8zUOiE3MjUb50T6CR-150" target="aFa8zUOiE3MjUb50T6CR-98">
          <mxGeometry relative="1" as="geometry">
            <Array as="points">
              <mxPoint x="160" y="1210" />
              <mxPoint x="-40" y="1210" />
              <mxPoint x="-40" y="380" />
            </Array>
          </mxGeometry>
        </mxCell>
        <mxCell id="aFa8zUOiE3MjUb50T6CR-150" value="&lt;u&gt;Part_ID&lt;/u&gt;" style="rounded=0;whiteSpace=wrap;html=1;labelBackgroundColor=none;" vertex="1" parent="1">
          <mxGeometry x="120" y="1160" width="80" height="40" as="geometry" />
        </mxCell>
        <mxCell id="aFa8zUOiE3MjUb50T6CR-151" value="&lt;b&gt;Recommends&lt;/b&gt;" style="text;html=1;align=center;verticalAlign=middle;whiteSpace=wrap;rounded=0;" vertex="1" parent="1">
          <mxGeometry x="40" y="1210" width="90" height="30" as="geometry" />
        </mxCell>
        <mxCell id="aFa8zUOiE3MjUb50T6CR-184" style="edgeStyle=orthogonalEdgeStyle;rounded=0;orthogonalLoop=1;jettySize=auto;html=1;" edge="1" parent="1" source="aFa8zUOiE3MjUb50T6CR-152">
          <mxGeometry relative="1" as="geometry">
            <mxPoint x="40" y="140" as="targetPoint" />
            <Array as="points">
              <mxPoint x="-30" y="1260" />
              <mxPoint x="-30" y="140" />
            </Array>
          </mxGeometry>
        </mxCell>
        <mxCell id="aFa8zUOiE3MjUb50T6CR-152" value="&lt;u&gt;Appointment_ID&lt;/u&gt;" style="rounded=0;whiteSpace=wrap;html=1;labelBackgroundColor=none;" vertex="1" parent="1">
          <mxGeometry x="40" y="1240" width="100" height="40" as="geometry" />
        </mxCell>
        <mxCell id="aFa8zUOiE3MjUb50T6CR-188" style="edgeStyle=orthogonalEdgeStyle;rounded=0;orthogonalLoop=1;jettySize=auto;html=1;entryX=0;entryY=0.5;entryDx=0;entryDy=0;" edge="1" parent="1" source="aFa8zUOiE3MjUb50T6CR-153" target="aFa8zUOiE3MjUb50T6CR-87">
          <mxGeometry relative="1" as="geometry">
            <Array as="points">
              <mxPoint x="185" y="1290" />
              <mxPoint x="-50" y="1290" />
              <mxPoint x="-50" y="220" />
            </Array>
          </mxGeometry>
        </mxCell>
        <mxCell id="aFa8zUOiE3MjUb50T6CR-153" value="Package_ID" style="rounded=0;whiteSpace=wrap;html=1;labelBackgroundColor=none;fontStyle=4" vertex="1" parent="1">
          <mxGeometry x="140" y="1240" width="90" height="40" as="geometry" />
        </mxCell>
        <mxCell id="aFa8zUOiE3MjUb50T6CR-156" value="&lt;b&gt;Additionally Scheduled&lt;/b&gt;" style="text;html=1;align=center;verticalAlign=middle;whiteSpace=wrap;rounded=0;" vertex="1" parent="1">
          <mxGeometry x="40" y="1290" width="150" height="30" as="geometry" />
        </mxCell>
        <mxCell id="aFa8zUOiE3MjUb50T6CR-157" value="Is_Mandatory" style="rounded=0;whiteSpace=wrap;html=1;labelBackgroundColor=none;" vertex="1" parent="1">
          <mxGeometry x="230" y="1240" width="90" height="40" as="geometry" />
        </mxCell>
        <mxCell id="aFa8zUOiE3MjUb50T6CR-181" style="edgeStyle=orthogonalEdgeStyle;rounded=0;orthogonalLoop=1;jettySize=auto;html=1;entryX=0;entryY=0.5;entryDx=0;entryDy=0;" edge="1" parent="1" source="aFa8zUOiE3MjUb50T6CR-158" target="aFa8zUOiE3MjUb50T6CR-81">
          <mxGeometry relative="1" as="geometry">
            <Array as="points">
              <mxPoint x="-30" y="1340" />
              <mxPoint x="-30" y="140" />
            </Array>
          </mxGeometry>
        </mxCell>
        <mxCell id="aFa8zUOiE3MjUb50T6CR-158" value="&lt;u&gt;Appointment_ID&lt;/u&gt;" style="rounded=0;whiteSpace=wrap;html=1;labelBackgroundColor=none;" vertex="1" parent="1">
          <mxGeometry x="40" y="1320" width="100" height="40" as="geometry" />
        </mxCell>
        <mxCell id="aFa8zUOiE3MjUb50T6CR-189" style="edgeStyle=orthogonalEdgeStyle;rounded=0;orthogonalLoop=1;jettySize=auto;html=1;entryX=0;entryY=0.5;entryDx=0;entryDy=0;" edge="1" parent="1" source="aFa8zUOiE3MjUb50T6CR-159" target="aFa8zUOiE3MjUb50T6CR-93">
          <mxGeometry relative="1" as="geometry">
            <Array as="points">
              <mxPoint x="170" y="1370" />
              <mxPoint x="-60" y="1370" />
              <mxPoint x="-60" y="300" />
            </Array>
          </mxGeometry>
        </mxCell>
        <mxCell id="aFa8zUOiE3MjUb50T6CR-159" value="&lt;u&gt;Task_ID&lt;/u&gt;" style="rounded=0;whiteSpace=wrap;html=1;labelBackgroundColor=none;" vertex="1" parent="1">
          <mxGeometry x="140" y="1320" width="60" height="40" as="geometry" />
        </mxCell>
        <mxCell id="aFa8zUOiE3MjUb50T6CR-160" value="&lt;b&gt;Was Performed&lt;/b&gt;" style="text;html=1;align=center;verticalAlign=middle;whiteSpace=wrap;rounded=0;" vertex="1" parent="1">
          <mxGeometry x="40" y="1370" width="100" height="30" as="geometry" />
        </mxCell>
        <mxCell id="aFa8zUOiE3MjUb50T6CR-182" style="edgeStyle=orthogonalEdgeStyle;rounded=0;orthogonalLoop=1;jettySize=auto;html=1;entryX=0;entryY=0.5;entryDx=0;entryDy=0;" edge="1" parent="1" source="aFa8zUOiE3MjUb50T6CR-161" target="aFa8zUOiE3MjUb50T6CR-81">
          <mxGeometry relative="1" as="geometry">
            <Array as="points">
              <mxPoint x="-30" y="1420" />
              <mxPoint x="-30" y="140" />
            </Array>
          </mxGeometry>
        </mxCell>
        <mxCell id="aFa8zUOiE3MjUb50T6CR-161" value="&lt;u&gt;Appointment_ID&lt;/u&gt;" style="rounded=0;whiteSpace=wrap;html=1;labelBackgroundColor=none;" vertex="1" parent="1">
          <mxGeometry x="40" y="1400" width="100" height="40" as="geometry" />
        </mxCell>
        <mxCell id="aFa8zUOiE3MjUb50T6CR-190" style="edgeStyle=orthogonalEdgeStyle;rounded=0;orthogonalLoop=1;jettySize=auto;html=1;entryX=0;entryY=0.5;entryDx=0;entryDy=0;" edge="1" parent="1" source="aFa8zUOiE3MjUb50T6CR-162" target="aFa8zUOiE3MjUb50T6CR-93">
          <mxGeometry relative="1" as="geometry">
            <Array as="points">
              <mxPoint x="170" y="1450" />
              <mxPoint x="-60" y="1450" />
              <mxPoint x="-60" y="300" />
            </Array>
          </mxGeometry>
        </mxCell>
        <mxCell id="aFa8zUOiE3MjUb50T6CR-162" value="Task_ID" style="rounded=0;whiteSpace=wrap;html=1;labelBackgroundColor=none;fontStyle=4" vertex="1" parent="1">
          <mxGeometry x="140" y="1400" width="60" height="40" as="geometry" />
        </mxCell>
        <mxCell id="aFa8zUOiE3MjUb50T6CR-163" value="&lt;b&gt;Was Replaced&lt;/b&gt;" style="text;html=1;align=center;verticalAlign=middle;whiteSpace=wrap;rounded=0;" vertex="1" parent="1">
          <mxGeometry x="40" y="1450" width="90" height="30" as="geometry" />
        </mxCell>
        <mxCell id="aFa8zUOiE3MjUb50T6CR-164" value="&lt;b&gt;Owns&lt;/b&gt;" style="text;html=1;align=center;verticalAlign=middle;whiteSpace=wrap;rounded=0;" vertex="1" parent="1">
          <mxGeometry x="40" y="1530" width="60" height="30" as="geometry" />
        </mxCell>
        <mxCell id="aFa8zUOiE3MjUb50T6CR-165" value="&lt;b&gt;Failure Requires&lt;/b&gt;" style="text;html=1;align=center;verticalAlign=middle;whiteSpace=wrap;rounded=0;" vertex="1" parent="1">
          <mxGeometry x="40" y="1610" width="100" height="30" as="geometry" />
        </mxCell>
        <mxCell id="aFa8zUOiE3MjUb50T6CR-187" style="edgeStyle=orthogonalEdgeStyle;rounded=0;orthogonalLoop=1;jettySize=auto;html=1;entryX=0;entryY=0.5;entryDx=0;entryDy=0;" edge="1" parent="1" source="aFa8zUOiE3MjUb50T6CR-166" target="aFa8zUOiE3MjUb50T6CR-98">
          <mxGeometry relative="1" as="geometry">
            <Array as="points">
              <mxPoint x="-40" y="1660" />
              <mxPoint x="-40" y="380" />
            </Array>
          </mxGeometry>
        </mxCell>
        <mxCell id="aFa8zUOiE3MjUb50T6CR-166" value="&lt;u&gt;Part_ID&lt;/u&gt;" style="rounded=0;whiteSpace=wrap;html=1;labelBackgroundColor=none;" vertex="1" parent="1">
          <mxGeometry x="40" y="1640" width="80" height="40" as="geometry" />
        </mxCell>
        <mxCell id="aFa8zUOiE3MjUb50T6CR-183" style="edgeStyle=orthogonalEdgeStyle;rounded=0;orthogonalLoop=1;jettySize=auto;html=1;entryX=0;entryY=0.5;entryDx=0;entryDy=0;" edge="1" parent="1" source="aFa8zUOiE3MjUb50T6CR-167" target="aFa8zUOiE3MjUb50T6CR-81">
          <mxGeometry relative="1" as="geometry">
            <Array as="points">
              <mxPoint x="-30" y="1500" />
              <mxPoint x="-30" y="140" />
            </Array>
          </mxGeometry>
        </mxCell>
        <mxCell id="aFa8zUOiE3MjUb50T6CR-167" value="&lt;u&gt;Appointment_ID&lt;/u&gt;" style="rounded=0;whiteSpace=wrap;html=1;labelBackgroundColor=none;" vertex="1" parent="1">
          <mxGeometry x="40" y="1480" width="100" height="40" as="geometry" />
        </mxCell>
        <mxCell id="aFa8zUOiE3MjUb50T6CR-186" style="edgeStyle=orthogonalEdgeStyle;rounded=0;orthogonalLoop=1;jettySize=auto;html=1;entryX=0;entryY=0.5;entryDx=0;entryDy=0;" edge="1" parent="1" source="aFa8zUOiE3MjUb50T6CR-169" target="aFa8zUOiE3MjUb50T6CR-98">
          <mxGeometry relative="1" as="geometry">
            <Array as="points">
              <mxPoint x="180" y="1530" />
              <mxPoint x="-40" y="1530" />
              <mxPoint x="-40" y="380" />
            </Array>
          </mxGeometry>
        </mxCell>
        <mxCell id="aFa8zUOiE3MjUb50T6CR-169" value="Part_ID" style="rounded=0;whiteSpace=wrap;html=1;labelBackgroundColor=none;fontStyle=4" vertex="1" parent="1">
          <mxGeometry x="140" y="1480" width="80" height="40" as="geometry" />
        </mxCell>
        <mxCell id="aFa8zUOiE3MjUb50T6CR-191" style="edgeStyle=orthogonalEdgeStyle;rounded=0;orthogonalLoop=1;jettySize=auto;html=1;entryX=0;entryY=0.5;entryDx=0;entryDy=0;" edge="1" parent="1" source="aFa8zUOiE3MjUb50T6CR-171" target="aFa8zUOiE3MjUb50T6CR-73">
          <mxGeometry relative="1" as="geometry">
            <Array as="points">
              <mxPoint x="-70" y="1580" />
              <mxPoint x="-70" y="60" />
            </Array>
          </mxGeometry>
        </mxCell>
        <mxCell id="aFa8zUOiE3MjUb50T6CR-171" value="&lt;u&gt;Customer_ID&lt;/u&gt;" style="rounded=0;whiteSpace=wrap;html=1;labelBackgroundColor=none;" vertex="1" parent="1">
          <mxGeometry x="40" y="1560" width="80" height="40" as="geometry" />
        </mxCell>
        <mxCell id="aFa8zUOiE3MjUb50T6CR-192" style="edgeStyle=orthogonalEdgeStyle;rounded=0;orthogonalLoop=1;jettySize=auto;html=1;entryX=0;entryY=0.5;entryDx=0;entryDy=0;" edge="1" parent="1" source="aFa8zUOiE3MjUb50T6CR-172" target="aFa8zUOiE3MjUb50T6CR-145">
          <mxGeometry relative="1" as="geometry">
            <Array as="points">
              <mxPoint x="160" y="1610" />
              <mxPoint x="20" y="1610" />
              <mxPoint x="20" y="700" />
            </Array>
          </mxGeometry>
        </mxCell>
        <mxCell id="aFa8zUOiE3MjUb50T6CR-172" value="&lt;u&gt;Car_ID&lt;/u&gt;" style="rounded=0;whiteSpace=wrap;html=1;labelBackgroundColor=none;" vertex="1" parent="1">
          <mxGeometry x="120" y="1560" width="80" height="40" as="geometry" />
        </mxCell>
        <mxCell id="aFa8zUOiE3MjUb50T6CR-173" value="&lt;b&gt;Was Bought&lt;/b&gt;" style="text;html=1;align=center;verticalAlign=middle;whiteSpace=wrap;rounded=0;" vertex="1" parent="1">
          <mxGeometry x="40" y="1050" width="80" height="30" as="geometry" />
        </mxCell>
        <mxCell id="aFa8zUOiE3MjUb50T6CR-175" value="&lt;u&gt;Purchase_ID&lt;/u&gt;" style="rounded=0;whiteSpace=wrap;html=1;labelBackgroundColor=none;" vertex="1" parent="1">
          <mxGeometry x="40" y="1080" width="80" height="40" as="geometry" />
        </mxCell>
        <mxCell id="aFa8zUOiE3MjUb50T6CR-176" value="Sale Price" style="rounded=0;whiteSpace=wrap;html=1;labelBackgroundColor=none;" vertex="1" parent="1">
          <mxGeometry x="120" y="1080" width="80" height="40" as="geometry" />
        </mxCell>
        <mxCell id="aFa8zUOiE3MjUb50T6CR-179" style="edgeStyle=orthogonalEdgeStyle;rounded=0;orthogonalLoop=1;jettySize=auto;html=1;entryX=0;entryY=0.5;entryDx=0;entryDy=0;" edge="1" parent="1" source="aFa8zUOiE3MjUb50T6CR-177" target="aFa8zUOiE3MjUb50T6CR-145">
          <mxGeometry relative="1" as="geometry">
            <Array as="points">
              <mxPoint x="240" y="1130" />
              <mxPoint x="20" y="1130" />
              <mxPoint x="20" y="700" />
            </Array>
          </mxGeometry>
        </mxCell>
        <mxCell id="aFa8zUOiE3MjUb50T6CR-177" value="Car_ID" style="rounded=0;whiteSpace=wrap;html=1;labelBackgroundColor=none;fontStyle=4" vertex="1" parent="1">
          <mxGeometry x="200" y="1080" width="80" height="40" as="geometry" />
        </mxCell>
        <mxCell id="aFa8zUOiE3MjUb50T6CR-180" style="edgeStyle=orthogonalEdgeStyle;rounded=0;orthogonalLoop=1;jettySize=auto;html=1;entryX=-0.033;entryY=0.399;entryDx=0;entryDy=0;entryPerimeter=0;" edge="1" parent="1" source="aFa8zUOiE3MjUb50T6CR-149" target="aFa8zUOiE3MjUb50T6CR-102">
          <mxGeometry relative="1" as="geometry">
            <Array as="points">
              <mxPoint x="-20" y="1180" />
              <mxPoint x="-20" y="456" />
            </Array>
          </mxGeometry>
        </mxCell>
      </root>
    </mxGraphModel>
  </diagram>
</mxfile>
